<svg t="1704268870178" class="icon" viewBox="0 0 1024 1024" version="1.1" xmlns="http://www.w3.org/2000/svg" p-id="19731" width="200" height="200"><path d="M331.861333 150.7328C334.1312 152.251733 388.778667 187.733333 512 187.733333c42.222933 0 80.896-4.130133 114.8928-12.288a17.066667 17.066667 0 0 0-7.970133-33.194666C587.52 149.777067 551.560533 153.6 512 153.6c-78.455467 0-126.071467-15.325867-147.592533-24.5248C381.508267 99.5328 428.765867 34.133333 512 34.133333c106.3424 0 152.968533 104.482133 154.9824 109.141334a17.0496 17.0496 0 1 0 31.368533-13.4656C696.081067 124.5184 641.2288 0 512 0c-129.245867 0-184.081067 124.5184-186.350933 129.809067a17.0496 17.0496 0 0 0 6.212266 20.923733zM761.173333 320.853333a17.015467 17.015467 0 0 0 3.413334-23.893333c-38.212267-50.961067-28.484267-102.434133-24.32-117.794133A49.902933 49.902933 0 0 1 768 170.666667c28.228267 0 51.2 22.971733 51.2 51.2a50.346667 50.346667 0 0 1-7.560533 26.299733 17.066667 17.066667 0 0 0 17.8688 25.582933 34.184533 34.184533 0 0 1 35.003733 52.599467 17.083733 17.083733 0 0 0 5.5808 24.3712C891.665067 363.144533 904.533333 385.160533 904.533333 409.6c0 20.4288-9.386667 39.714133-25.736533 52.906667a16.9984 16.9984 0 0 0-1.3312 25.361066c6.4512 6.434133 10.001067 15.018667 10.001067 24.132267a34.184533 34.184533 0 0 1-40.891734 33.450667 17.066667 17.066667 0 0 0-17.8688 25.582933A50.346667 50.346667 0 0 1 836.266667 597.333333a51.4048 51.4048 0 0 1-25.6 44.322134 17.066667 17.066667 0 1 0 17.066666 29.559466A85.6064 85.6064 0 0 0 870.4 597.333333c0-6.280533-0.733867-12.544-2.167467-18.705066a68.386133 68.386133 0 0 0 44.117334-101.0176A101.205333 101.205333 0 0 0 938.666667 409.6a102.331733 102.331733 0 0 0-38.161067-79.291733 68.386133 68.386133 0 0 0-49.339733-89.736534c1.4336-6.161067 2.167467-12.424533 2.167466-18.705066 0-47.0528-38.280533-85.333333-85.333333-85.333334a84.3264 84.3264 0 0 0-53.0432 18.858667 17.169067 17.169067 0 0 0-5.358933 7.441067c-1.194667 3.208533-28.450133 79.7696 27.682133 154.606933a17.0496 17.0496 0 0 0 23.893333 3.413333zM102.4 512a68.386133 68.386133 0 0 0 53.367467 66.628267A82.466133 82.466133 0 0 0 153.6 597.333333a85.674667 85.674667 0 0 0 43.008 74.120534 17.066667 17.066667 0 0 0 16.964267-29.6448A51.387733 51.387733 0 0 1 187.733333 597.333333c0-9.1648 2.56-18.0224 7.543467-26.299733a17.032533 17.032533 0 0 0-0.6144-18.602667 16.930133 16.930133 0 0 0-17.237333-6.980266 34.167467 34.167467 0 0 1-30.8736-57.582934 17.066667 17.066667 0 0 0-1.348267-25.361066C128.8192 449.314133 119.466667 430.0288 119.466667 409.6c0-24.439467 12.868267-46.455467 34.423466-58.88a17.015467 17.015467 0 0 0 5.5808-24.3712 34.167467 34.167467 0 0 1 35.003734-52.599467 16.896 16.896 0 0 0 17.2544-6.980266 17.032533 17.032533 0 0 0 0.6144-18.602667A50.346667 50.346667 0 0 1 204.8 221.866667c0-28.228267 22.954667-51.2 51.2-51.2 9.8304 0 19.319467 2.9184 27.733333 8.482133A138.581333 138.581333 0 0 1 259.413333 296.96a17.066667 17.066667 0 1 0 27.306667 20.48c56.149333-74.837333 28.859733-151.3984 27.682133-154.606933a17.2032 17.2032 0 0 0-5.376-7.441067A84.258133 84.258133 0 0 0 256 136.533333c-47.0528 0-85.333333 38.280533-85.333333 85.333334 0 6.280533 0.733867 12.544 2.167466 18.705066a68.386133 68.386133 0 0 0-49.3568 89.736534A102.382933 102.382933 0 0 0 85.333333 409.6c0 25.275733 9.4208 49.339733 26.3168 68.010667A67.874133 67.874133 0 0 0 102.4 512z m580.266667 256a17.066667 17.066667 0 0 0-0.0512 34.133333c7.082667 0.034133 29.44 2.338133 39.185066 12.066134 3.1744 3.191467 4.4544 9.0112 3.549867 16.008533-1.28 9.608533-6.4 17.8688-10.615467 20.309333-12.765867 7.355733-27.818667 6.724267-40.772266-1.5872a17.664 17.664 0 0 0-5.922134-3.7376 17.373867 17.373867 0 0 0-20.5824 6.980267 16.9984 16.9984 0 0 0-2.645333 8.413867c-3.242667 15.121067-13.4656 26.282667-27.7504 30.1056-15.104 3.9936-30.208-1.211733-40.618667-14.011734a16.9984 16.9984 0 0 0-15.479466-6.126933 16.9984 16.9984 0 0 0-13.312 9.915733C540.842667 895.5392 527.530667 904.533333 512 904.533333c-15.530667 0-28.8768-8.994133-35.6352-24.064a17.0496 17.0496 0 0 0-28.808533-3.7888c-10.410667 12.8-25.6 18.056533-40.618667 14.011734-15.018667-4.010667-25.565867-16.162133-28.194133-32.4608a17.066667 17.066667 0 0 0-11.349334-13.312 17.237333 17.237333 0 0 0-15.786666 2.440533c-13.397333 9.591467-29.3376 10.7008-42.8032 2.952533-4.027733-2.338133-9.0112-10.052267-10.2912-19.746133-0.938667-7.0144 0.443733-13.141333 3.6864-16.366933 9.728-9.728 32.1024-12.032 39.133866-12.066134a17.066667 17.066667 0 1 0 0-34.133333c-4.215467 0-41.813333 0.6144-63.266133 22.0672-10.8544 10.8544-15.735467 27.255467-13.397333 44.970667 2.577067 19.524267 12.970667 36.7104 27.0848 44.8512a71.5776 71.5776 0 0 0 60.1088 5.4784 71.68 71.68 0 0 0 46.250666 38.2976 71.68 71.68 0 0 0 59.255467-10.103467A71.68 71.68 0 0 0 512 938.666667a71.714133 71.714133 0 0 0 54.6304-25.105067 71.7824 71.7824 0 0 0 59.272533 10.103467 71.645867 71.645867 0 0 0 46.08-37.9904 71.850667 71.850667 0 0 0 59.818667-5.597867c14.062933-8.106667 24.814933-25.941333 27.374933-45.4144 2.321067-17.595733-2.491733-33.860267-13.243733-44.5952C724.48 768.6144 686.882133 768 682.666667 768z m340.821333 234.8032l-17.442133-69.5296C991.8464 890.658133 946.4832 819.2 802.133333 819.2a17.066667 17.066667 0 1 0 0 34.133333c91.136 0 152.029867 32.221867 171.178667 89.463467l17.066667 68.266667a17.032533 17.032533 0 1 0 33.109333-8.260267zM221.866667 819.2c-144.349867 0-189.730133 71.458133-204.288 115.336533l-17.066667 68.266667a17.032533 17.032533 0 1 0 33.109333 8.260267l16.6912-67.003734C69.819733 885.5552 130.747733 853.333333 221.866667 853.333333a17.066667 17.066667 0 1 0 0-34.133333z m170.666666-392.533333a17.066667 17.066667 0 0 0 17.066667-17.066667h17.066667a17.066667 17.066667 0 1 0 0-34.133333h-68.266667a17.066667 17.066667 0 1 0 0 34.133333h17.066667a17.066667 17.066667 0 0 0 17.066666 17.066667z m273.066667-17.066667a17.066667 17.066667 0 1 0 0-34.133333h-68.266667a17.066667 17.066667 0 1 0 0 34.133333h17.066667a17.066667 17.066667 0 1 0 34.133333 0h17.066667z m-153.6 119.466667a17.083733 17.083733 0 0 0 0-34.133334 17.066667 17.066667 0 0 0 0 34.133334z m0 34.133333c-28.245333 0-51.2-22.971733-51.2-51.2s22.954667-51.2 51.2-51.2c28.228267 0 51.2 22.971733 51.2 51.2s-22.971733 51.2-51.2 51.2z m0 119.466667c92.433067 0 129.570133-76.322133 136.2944-116.667734a17.0496 17.0496 0 0 0-14.0288-19.626666 16.981333 16.981333 0 0 0-19.626667 14.0288C614.007467 564.002133 598.920533 648.533333 512 648.533333c-86.340267 0-102.024533-84.599467-102.638933-88.132266a17.066667 17.066667 0 0 0-33.672534 5.597866C382.4128 606.344533 419.566933 682.666667 512 682.666667z m272.4864-173.277867C775.714133 625.493333 663.995733 785.066667 512 785.066667c-152.046933 0-263.7824-159.675733-272.520533-275.797334A51.3024 51.3024 0 0 1 204.8 460.8v-68.266667c0-28.228267 22.954667-51.2 51.2-51.2a17.066667 17.066667 0 1 1 0 34.133334 17.066667 17.066667 0 0 0-17.066667 17.066666v68.266667a17.066667 17.066667 0 0 0 17.066667 17.066667 17.066667 17.066667 0 0 1 17.066667 17.066666c0 87.893333 93.047467 256 238.933333 256s238.933333-168.106667 238.933333-256a17.066667 17.066667 0 0 1 17.066667-17.066666c9.728 0 17.066667-7.338667 17.066667-17.066667v-68.266667c0-9.4208-7.662933-17.066667-17.066667-17.066666a17.066667 17.066667 0 1 1 0-34.133334c28.228267 0 51.2 22.971733 51.2 51.2v68.266667a50.602667 50.602667 0 0 1-34.7136 48.5888z" fill="#000000" p-id="19732"></path></svg>